<?xml version="1.0" encoding="utf-8"?>
<svg viewBox="-14.178 -14.493 665.426 537.823" xmlns="http://www.w3.org/2000/svg">
  <g id="layer1" transform="matrix(1, 0, 0, 1, 0, -535.334106)">
    <rect style="fill: rgb(113, 200, 55); fill-rule: evenodd; stroke: none;" id="rect2816-4-4-5-1-7" width="106.967" height="103.817" x="272.118" y="578.371" ry="28.11" rx="24.596"/>
    <rect style="fill: rgb(113, 200, 55); fill-rule: evenodd;" id="rect2816-4-4-5-1-7-4" width="106.967" height="103.817" x="272.118" y="687.217" ry="28.11" rx="24.596"/>
    <rect style="fill: rgb(113, 200, 55); fill-rule: evenodd;" id="rect2816-4-4-5-1-7-3" width="106.967" height="103.817" x="272.118" y="796.062" ry="28.11" rx="24.596"/>
    <rect style="fill: rgb(113, 200, 55); fill-rule: evenodd;" id="rect2816-4-4-5-1-7-1" width="106.967" height="103.817" x="272.118" y="904.908" ry="28.11" rx="24.596"/>
    <rect style="fill: rgb(113, 200, 55); fill-rule: evenodd; stroke: none;" id="rect2816-4-4-5-1-7-8" width="106.967" height="103.817" x="384.785" y="578.371" ry="28.11" rx="24.596"/>
    <rect style="fill: rgb(113, 200, 55); fill-rule: evenodd;" id="rect2816-4-4-5-1-7-4-9" width="106.967" height="103.817" x="158.969" y="687.217" ry="28.11" rx="24.596"/>
    <rect style="fill: rgb(113, 200, 55); fill-rule: evenodd;" id="rect2816-4-4-5-1-7-3-2" width="106.967" height="103.817" x="158.969" y="796.062" ry="28.11" rx="24.596"/>
    <rect style="fill: rgb(113, 200, 55); fill-rule: evenodd;" id="rect2816-4-4-5-1-7-1-7" width="106.967" height="103.817" x="158.969" y="904.908" ry="28.11" rx="24.596"/>
    <rect style="fill: rgb(113, 200, 55); fill-rule: evenodd;" id="rect2816-4-4-5-1-7-8-2" width="106.967" height="103.817" x="384.785" y="794.592" ry="28.11" rx="24.596"/>
    <path style="fill: rgb(212, 0, 0);" id="path3184" d="M 262.464 626.601 C 262.464 654.627 239.395 677.347 210.937 677.347 C 182.479 677.347 159.409 654.627 159.409 626.601 C 159.409 598.576 182.479 575.856 210.937 575.856 C 239.395 575.856 262.464 598.576 262.464 626.601 Z"/>
  </g>
</svg>