<?xml version="1.0" encoding="utf-8"?>
<svg viewBox="21.819 0 211.603 194.755" xmlns="http://www.w3.org/2000/svg">
  <g id="surface1" transform="matrix(1, 0, 0, 1, 23.750887, 16.540796)">
    <path style="stroke: none; fill-rule: evenodd; fill-opacity: 1; fill: rgb(255, 255, 255);" d="M 106.160156 95.21875 C 106.09375 108.59375 106.261719 126.238281 106.398438 143.382813 C 109.890625 143.25 112.414063 142.566406 115.074219 141.664063 C 106.953125 130.816406 105.726563 109.53125 114.945313 96.890625 C 112.097656 95.839844 108.941406 95.394531 106.160156 95.21875 Z M 106.160156 95.21875 "/>
    <path style="stroke: none; fill-rule: evenodd; fill-opacity: 1; fill: rgb(255, 255, 255);" d="M 103.320313 95.289063 C 103.382813 108.667969 103.21875 126.308594 103.082031 143.453125 C 99.589844 143.324219 97.066406 142.636719 94.40625 141.738281 C 102.527344 130.890625 103.753906 109.601563 94.535156 96.960938 C 97.382813 95.914063 100.535156 95.46875 103.320313 95.289063 Z M 103.320313 95.289063 "/>
    <path style="stroke: none; fill-rule: evenodd; fill-opacity: 1; fill: rgb(255, 255, 255);" d="M 123.648438 101.910156 C 122.167969 100.574219 120.449219 99.480469 118.582031 98.53125 C 106.875 111.835938 108.488281 131.027344 119.308594 139.746094 C 120.867188 138.632813 122.421875 137.519531 123.976563 136.40625 C 109.292969 129.125 110.210938 107.898438 123.648438 101.910156 Z M 123.648438 101.910156 "/>
    <path style="stroke: none; fill-rule: evenodd; fill-opacity: 1; fill: rgb(255, 255, 255);" d="M 85.832031 101.980469 C 87.308594 100.648438 89.03125 99.550781 90.898438 98.605469 C 102.605469 111.90625 100.988281 131.097656 90.167969 139.820313 C 88.613281 138.707031 87.058594 137.589844 85.503906 136.476563 C 100.1875 129.199219 99.265625 107.972656 85.832031 101.980469 Z M 85.832031 101.980469 "/>
    <path style="stroke: none; fill-rule: evenodd; fill-opacity: 1; fill: rgb(255, 255, 255);" d="M 131.6875 115.65625 C 131.105469 111.769531 129.160156 107.839844 126.546875 104.847656 C 110.667969 111.082031 113.792969 129.453125 126.726563 133.671875 C 129.140625 130.617188 130.976563 127.246094 131.679688 123.214844 C 125.328125 129.074219 117.582031 124.882813 117.832031 118.941406 C 118.105469 112.503906 126.609375 110.199219 131.6875 115.65625 Z M 131.6875 115.65625 "/>
    <path style="stroke: none; fill-rule: evenodd; fill-opacity: 1; fill: rgb(255, 255, 255);" d="M 77.792969 115.730469 C 78.371094 111.839844 80.320313 107.910156 82.933594 104.921875 C 98.808594 111.152344 95.6875 129.523438 82.753906 133.742188 C 80.335938 130.691406 78.503906 127.320313 77.800781 123.289063 C 84.152344 129.148438 91.894531 124.957031 91.644531 119.015625 C 91.375 112.574219 82.867188 110.273438 77.792969 115.730469 Z M 77.792969 115.730469 "/>
    <path style="fill: none; stroke-width: 15.212; stroke-linecap: round; stroke-linejoin: round; stroke-opacity: 1; stroke-miterlimit: 4; stroke: rgb(255, 255, 255);" d="M 1710.742188 996.914063 C 1748.125 996.914063 1778.398438 966.601563 1778.398438 929.257813 C 1778.398438 891.875 1748.125 861.601563 1710.742188 861.601563 C 1673.398438 861.601563 1643.085938 891.875 1643.085938 929.257813 C 1643.085938 966.601563 1673.398438 996.914063 1710.742188 996.914063 Z M 1710.742188 996.914063 " transform="matrix(0.1,0,0,-0.1,0,221.5)"/>
    <path style="fill: none; stroke-width: 15.212; stroke-linecap: round; stroke-linejoin: round; stroke-opacity: 1; stroke-miterlimit: 4; stroke: rgb(255, 255, 255);" d="M 372.539063 996.171875 C 335.195313 996.171875 304.882813 965.859375 304.882813 928.515625 C 304.882813 891.171875 335.195313 860.859375 372.539063 860.859375 C 409.921875 860.859375 440.234375 891.171875 440.234375 928.515625 C 440.234375 965.859375 409.921875 996.171875 372.539063 996.171875 Z M 372.539063 996.171875 " transform="matrix(0.1,0,0,-0.1,0,221.5)"/>
    <path style="fill: none; stroke-width: 15.212; stroke-linecap: round; stroke-linejoin: round; stroke-opacity: 1; stroke-miterlimit: 4; stroke: rgb(255, 255, 255);" d="M 1726.015625 821.5625 C 1763.398438 821.5625 1793.671875 791.289063 1793.671875 753.90625 C 1793.671875 716.5625 1763.398438 686.25 1726.015625 686.25 C 1688.671875 686.25 1658.359375 716.5625 1658.359375 753.90625 C 1658.359375 791.289063 1688.671875 821.5625 1726.015625 821.5625 Z M 1726.015625 821.5625 " transform="matrix(0.1,0,0,-0.1,0,221.5)"/>
    <path style="fill: none; stroke-width: 15.212; stroke-linecap: round; stroke-linejoin: round; stroke-opacity: 1; stroke-miterlimit: 4; stroke: rgb(255, 255, 255);" d="M 357.265625 820.859375 C 319.921875 820.859375 289.609375 790.546875 289.609375 753.164063 C 289.609375 715.820313 319.921875 685.507813 357.265625 685.507813 C 394.648438 685.507813 424.921875 715.820313 424.921875 753.164063 C 424.921875 790.546875 394.648438 820.859375 357.265625 820.859375 Z M 357.265625 820.859375 " transform="matrix(0.1,0,0,-0.1,0,221.5)"/>
    <path style="fill: none; stroke-width: 15.212; stroke-linecap: round; stroke-linejoin: round; stroke-opacity: 1; stroke-miterlimit: 4; stroke: rgb(255, 255, 255);" d="M 1531.757813 843.398438 C 1569.140625 843.398438 1599.453125 813.085938 1599.453125 775.742188 C 1599.453125 738.359375 1569.140625 708.085938 1531.757813 708.085938 C 1494.414063 708.085938 1464.101563 738.359375 1464.101563 775.742188 C 1464.101563 813.085938 1494.414063 843.398438 1531.757813 843.398438 Z M 1531.757813 843.398438 " transform="matrix(0.1,0,0,-0.1,0,221.5)"/>
    <path style="fill: none; stroke-width: 15.212; stroke-linecap: round; stroke-linejoin: round; stroke-opacity: 1; stroke-miterlimit: 4; stroke: rgb(255, 255, 255);" d="M 551.523438 842.65625 C 514.179688 842.65625 483.867188 812.382813 483.867188 775 C 483.867188 737.65625 514.179688 707.34375 551.523438 707.34375 C 588.90625 707.34375 619.179688 737.65625 619.179688 775 C 619.179688 812.382813 588.90625 842.65625 551.523438 842.65625 Z M 551.523438 842.65625 " transform="matrix(0.1,0,0,-0.1,0,221.5)"/>
    <path style="fill: none; stroke-width: 15.212; stroke-linecap: round; stroke-linejoin: round; stroke-opacity: 1; stroke-miterlimit: 4; stroke: rgb(255, 255, 255);" d="M 1523.046875 891.40625 C 1277.148438 815.742188 1490.3125 563.28125 1616.914063 697.148438 C 1722.382813 554.570313 1948.671875 716.796875 1800.234375 845.585938 C 1935.3125 1037.65625 1603.320313 1130.78125 1587.8125 924.140625 C 1576.328125 925.820313 1564.570313 931.171875 1552.148438 944.53125 C 1558.789063 979.53125 1547.304688 995.546875 1512.109375 983.828125 C 1498.710938 973.984375 1485.273438 964.179688 1471.835938 954.375 C 1460.9375 921.09375 1477.148438 909.257813 1511.914063 912.03125 C 1520.3125 906.015625 1525.351563 899.375 1523.046875 891.40625 Z M 1523.046875 891.40625 " transform="matrix(0.1,0,0,-0.1,0,221.5)"/>
    <path style="fill: none; stroke-width: 15.212; stroke-linecap: round; stroke-linejoin: round; stroke-opacity: 1; stroke-miterlimit: 4; stroke: rgb(255, 255, 255);" d="M 560.273438 890.703125 C 806.171875 815.039063 593.007813 562.578125 466.40625 696.445313 C 360.898438 553.828125 134.648438 716.09375 283.085938 844.84375 C 148.007813 1036.914063 480 1130.039063 495.507813 923.4375 C 506.953125 925.117188 518.75 930.429688 531.171875 943.789063 C 524.53125 978.789063 536.015625 994.804688 571.171875 983.085938 C 584.609375 973.28125 598.046875 963.4375 611.484375 953.632813 C 622.382813 920.390625 606.171875 908.515625 571.367188 911.289063 C 562.96875 905.273438 557.929688 898.632813 560.273438 890.703125 Z M 560.273438 890.703125 " transform="matrix(0.1,0,0,-0.1,0,221.5)"/>
    <path style="fill: none; stroke-width: 15.212; stroke-linecap: round; stroke-linejoin: round; stroke-opacity: 1; stroke-miterlimit: 4; stroke: rgb(255, 255, 255);" d="M 1413.90625 1071.835938 L 1509.21875 983.828125 L 1469.21875 953.242188 L 1405.898438 1004.179688 " transform="matrix(0.1,0,0,-0.1,0,221.5)"/>
    <path style="fill: none; stroke-width: 15.212; stroke-linecap: round; stroke-linejoin: round; stroke-opacity: 1; stroke-miterlimit: 4; stroke: rgb(255, 255, 255);" d="M 669.375 1071.132813 L 574.101563 983.085938 L 614.101563 952.539063 L 677.382813 1003.4375 " transform="matrix(0.1,0,0,-0.1,0,221.5)"/>
    <path style="stroke-width: 15.212; stroke-linecap: round; stroke-linejoin: round; stroke-opacity: 1; stroke-miterlimit: 4; fill-rule: nonzero; fill: none; stroke: rgb(255, 255, 255);" d="M 638.90625 1420.3125 L 1437.421875 1420.3125 C 1420.898438 1206.09375 1405.507813 1017.5 1390.078125 803.242188 C 1381.601563 685.625 1231.757813 628.789063 1051.289063 624.648438 C 874.0625 620.625 704.921875 684.921875 696.445313 779.140625 Z M 638.90625 1420.3125 " transform="matrix(0.1,0,0,-0.1,0,221.5)"/>
    <path style="fill: none; stroke-width: 15.212; stroke-linecap: round; stroke-linejoin: round; stroke-opacity: 1; stroke-miterlimit: 4; stroke: rgb(255, 255, 255);" d="M 1048.203125 1420.273438 L 1536.132813 1873.59375 L 1576.875 1835.039063 L 1127.460938 1420.078125 Z M 1048.203125 1420.273438 " transform="matrix(0.1,0,0,-0.1,0,221.5)"/>
    <path style="fill: none; stroke-width: 15.212; stroke-linecap: round; stroke-linejoin: round; stroke-opacity: 1; stroke-miterlimit: 4; stroke: rgb(255, 255, 255);" d="M 1041.09375 1419.179688 L 553.125 1872.5 L 512.382813 1833.945313 L 961.796875 1418.984375 Z M 1041.09375 1419.179688 " transform="matrix(0.1,0,0,-0.1,0,221.5)"/>
    <path style="fill: none; stroke-width: 15.212; stroke-linecap: round; stroke-linejoin: round; stroke-opacity: 1; stroke-miterlimit: 4; stroke: rgb(255, 255, 255);" d="M 1289.882813 1569.804688 C 1313.945313 1548.789063 1338.007813 1527.8125 1362.070313 1506.796875 C 1413.203125 1551.757813 1451.09375 1509.21875 1407.65625 1463.710938 L 1479.101563 1400.546875 L 1583.007813 1501.328125 L 1507.1875 1573.632813 L 1473.085938 1540.039063 L 1443.203125 1567.617188 L 1476.5625 1599.726563 L 1438.632813 1636.601563 L 1466.015625 1662.734375 L 1508.476563 1621.992188 L 1547.109375 1659.609375 L 1572.070313 1632.421875 L 1539.648438 1603.203125 L 1622.03125 1533.476563 L 1727.421875 1629.84375 C 1703.710938 1652.734375 1680 1675.625 1656.328125 1698.515625 C 1612.734375 1663.75 1572.578125 1689.21875 1615.46875 1734.101563 L 1540 1800.742188 " transform="matrix(0.1,0,0,-0.1,0,221.5)"/>
    <path style="fill: none; stroke-width: 15.212; stroke-linecap: round; stroke-linejoin: round; stroke-opacity: 1; stroke-miterlimit: 4; stroke: rgb(255, 255, 255);" d="M 799.375 1568.710938 C 775.3125 1547.695313 751.25 1526.71875 727.1875 1505.703125 C 676.054688 1550.664063 638.203125 1508.125 681.601563 1462.617188 L 610.15625 1399.453125 L 506.25 1500.234375 L 582.070313 1572.539063 L 616.171875 1538.945313 L 646.054688 1566.523438 L 612.695313 1598.632813 L 650.625 1635.507813 L 623.28125 1661.640625 L 580.78125 1620.898438 L 542.148438 1658.515625 L 517.1875 1631.328125 L 549.609375 1602.109375 L 467.226563 1532.382813 L 361.875 1628.75 C 385.546875 1651.640625 409.257813 1674.53125 432.96875 1697.421875 C 476.523438 1662.65625 516.679688 1688.125 473.789063 1733.007813 L 549.257813 1799.648438 " transform="matrix(0.1,0,0,-0.1,0,221.5)"/>
    <path style="fill:none;stroke-width:15.212;stroke-linecap:round;stroke-linejoin:round;stroke:rgb(10.594177%,9.812927%,9.423828%);stroke-opacity:1;stroke-miterlimit:4;" d="M 1425.546875 1271.171875 C 1511.640625 1290.585938 1566.445313 1370.390625 1633.632813 1375.234375 C 1729.648438 1350 1583.4375 1265.859375 1627.070313 1192.617188 C 1675.625 1215.234375 1695 1195.351563 1724.570313 1201.328125 C 1741.25 1204.726563 1752.8125 1216.40625 1769.6875 1221.71875 C 1753.75 1284.921875 1858.398438 1320.234375 1790.78125 1394.882813 C 1747.070313 1443.085938 1665.234375 1428.007813 1633.632813 1374.492188 " transform="matrix(0.1,0,0,-0.1,0,221.5)"/>
    <path style="fill:none;stroke-width:15.212;stroke-linecap:round;stroke-linejoin:round;stroke:rgb(10.594177%,9.812927%,9.423828%);stroke-opacity:1;stroke-miterlimit:4;" d="M 654.492188 1274.101563 C 568.398438 1293.515625 513.59375 1373.28125 446.40625 1378.125 C 350.390625 1352.929688 496.601563 1268.75 452.96875 1195.507813 C 404.414063 1218.164063 385.039063 1198.242188 355.46875 1204.257813 C 338.789063 1207.65625 327.226563 1219.296875 310.351563 1224.609375 C 326.289063 1287.8125 221.640625 1323.164063 289.257813 1397.773438 C 332.96875 1446.015625 414.804688 1430.9375 446.40625 1377.421875 " transform="matrix(0.1,0,0,-0.1,0,221.5)"/>
    <path style="fill: none; stroke-width: 15.212; stroke-linecap: round; stroke-linejoin: round; stroke-opacity: 1; stroke-miterlimit: 4; stroke: rgb(255, 255, 255);" d="M 1425.546875 1271.171875 C 1511.640625 1290.585938 1566.445313 1370.390625 1633.632813 1375.234375 C 1729.648438 1350 1583.4375 1265.859375 1627.070313 1192.617188 C 1675.625 1215.234375 1695 1195.351563 1724.570313 1201.328125 C 1741.25 1204.726563 1752.8125 1216.40625 1769.6875 1221.71875 C 1753.75 1284.921875 1858.398438 1320.234375 1790.78125 1394.882813 C 1747.070313 1443.085938 1665.234375 1428.007813 1633.632813 1374.492188 " transform="matrix(0.1,0,0,-0.1,0,221.5)"/>
    <path style="fill: none; stroke-width: 15.212; stroke-linecap: round; stroke-linejoin: round; stroke-opacity: 1; stroke-miterlimit: 4; stroke: rgb(255, 255, 255);" d="M 654.492188 1274.101563 C 568.398438 1293.515625 513.59375 1373.28125 446.40625 1378.125 C 350.390625 1352.929688 496.601563 1268.75 452.96875 1195.507813 C 404.414063 1218.164063 385.039063 1198.242188 355.46875 1204.257813 C 338.789063 1207.65625 327.226563 1219.296875 310.351563 1224.609375 C 326.289063 1287.8125 221.640625 1323.164063 289.257813 1397.773438 C 332.96875 1446.015625 414.804688 1430.9375 446.40625 1377.421875 " transform="matrix(0.1,0,0,-0.1,0,221.5)"/>
    <path style="fill:none;stroke-width:15.212;stroke-linecap:round;stroke-linejoin:round;stroke:rgb(10.594177%,9.812927%,9.423828%);stroke-opacity:1;stroke-miterlimit:4;" d="M 1431.71875 1349.0625 L 1559.335938 1345.078125 " transform="matrix(0.1,0,0,-0.1,0,221.5)"/>
    <path style="fill:none;stroke-width:15.212;stroke-linecap:round;stroke-linejoin:round;stroke:rgb(10.594177%,9.812927%,9.423828%);stroke-opacity:1;stroke-miterlimit:4;" d="M 648.320313 1351.992188 L 520.703125 1347.96875 " transform="matrix(0.1,0,0,-0.1,0,221.5)"/>
    <path style="fill: none; stroke-width: 15.212; stroke-linecap: round; stroke-linejoin: round; stroke-opacity: 1; stroke-miterlimit: 4; stroke: rgb(255, 255, 255);" d="M 1431.71875 1349.0625 L 1559.335938 1345.078125 " transform="matrix(0.1,0,0,-0.1,0,221.5)"/>
    <path style="fill: none; stroke-width: 15.212; stroke-linecap: round; stroke-linejoin: round; stroke-opacity: 1; stroke-miterlimit: 4; stroke: rgb(255, 255, 255);" d="M 648.320313 1351.992188 L 520.703125 1347.96875 " transform="matrix(0.1,0,0,-0.1,0,221.5)"/>
    <path style="fill:none;stroke-width:15.212;stroke-linecap:round;stroke-linejoin:round;stroke:rgb(10.594177%,9.812927%,9.423828%);stroke-opacity:1;stroke-miterlimit:4;" d="M 1722.382813 1228.984375 C 1727.460938 1269.296875 1740.742188 1303.476563 1779.882813 1318.476563 C 1780.351563 1324.296875 1780.820313 1330.117188 1781.328125 1335.9375 C 1770.898438 1333.828125 1760.078125 1332.578125 1750.9375 1330.820313 C 1745.625 1340.546875 1741.5625 1353.867188 1736.210938 1363.59375 C 1728.203125 1361.875 1721.679688 1360.195313 1713.671875 1358.476563 C 1716.5625 1346.132813 1718.007813 1333.75 1720.9375 1321.40625 C 1710.273438 1319.921875 1699.609375 1318.476563 1688.90625 1317.03125 C 1687.8125 1307.929688 1686.679688 1300.507813 1685.117188 1291.914063 C 1694.0625 1293.398438 1701.054688 1293.75 1710.039063 1295.195313 C 1712.8125 1270.9375 1690.117188 1252.539063 1697.65625 1224.609375 C 1705.898438 1226.09375 1714.140625 1227.539063 1722.382813 1228.984375 Z M 1722.382813 1228.984375 " transform="matrix(0.1,0,0,-0.1,0,221.5)"/>
    <path style="fill:none;stroke-width:15.212;stroke-linecap:round;stroke-linejoin:round;stroke:rgb(10.594177%,9.812927%,9.423828%);stroke-opacity:1;stroke-miterlimit:4;" d="M 357.65625 1231.914063 C 352.617188 1272.226563 339.296875 1306.40625 300.195313 1321.40625 C 299.6875 1327.1875 299.21875 1333.046875 298.710938 1338.867188 C 309.179688 1336.71875 319.960938 1335.507813 329.101563 1333.75 C 334.453125 1343.4375 338.515625 1356.796875 343.828125 1366.484375 C 351.835938 1364.804688 358.398438 1363.085938 366.367188 1361.40625 C 363.476563 1349.023438 362.03125 1336.679688 359.101563 1324.296875 C 369.765625 1322.851563 380.46875 1321.40625 391.132813 1319.921875 C 392.226563 1310.859375 393.398438 1303.398438 394.921875 1294.84375 C 385.976563 1296.289063 378.984375 1296.640625 370.039063 1298.125 C 367.226563 1273.867188 389.921875 1255.429688 382.382813 1227.539063 C 374.140625 1228.984375 365.898438 1230.429688 357.65625 1231.914063 Z M 357.65625 1231.914063 " transform="matrix(0.1,0,0,-0.1,0,221.5)"/>
    <path style="fill: none; stroke-width: 15.212; stroke-linecap: round; stroke-linejoin: round; stroke-opacity: 1; stroke-miterlimit: 4; stroke: rgb(255, 255, 255);" d="M 1722.382813 1228.984375 C 1727.460938 1269.296875 1740.742188 1303.476563 1779.882813 1318.476563 C 1780.351563 1324.296875 1780.820313 1330.117188 1781.328125 1335.9375 C 1770.898438 1333.828125 1760.078125 1332.578125 1750.9375 1330.820313 C 1745.625 1340.546875 1741.5625 1353.867188 1736.210938 1363.59375 C 1728.203125 1361.875 1721.679688 1360.195313 1713.671875 1358.476563 C 1716.5625 1346.132813 1718.007813 1333.75 1720.9375 1321.40625 C 1710.273438 1319.921875 1699.609375 1318.476563 1688.90625 1317.03125 C 1687.8125 1307.929688 1686.679688 1300.507813 1685.117188 1291.914063 C 1694.0625 1293.398438 1701.054688 1293.75 1710.039063 1295.195313 C 1712.8125 1270.9375 1690.117188 1252.539063 1697.65625 1224.609375 C 1705.898438 1226.09375 1714.140625 1227.539063 1722.382813 1228.984375 Z M 1722.382813 1228.984375 " transform="matrix(0.1,0,0,-0.1,0,221.5)"/>
    <path style="fill: none; stroke-width: 15.212; stroke-linecap: round; stroke-linejoin: round; stroke-opacity: 1; stroke-miterlimit: 4; stroke: rgb(255, 255, 255);" d="M 357.65625 1231.914063 C 352.617188 1272.226563 339.296875 1306.40625 300.195313 1321.40625 C 299.6875 1327.1875 299.21875 1333.046875 298.710938 1338.867188 C 309.179688 1336.71875 319.960938 1335.507813 329.101563 1333.75 C 334.453125 1343.4375 338.515625 1356.796875 343.828125 1366.484375 C 351.835938 1364.804688 358.398438 1363.085938 366.367188 1361.40625 C 363.476563 1349.023438 362.03125 1336.679688 359.101563 1324.296875 C 369.765625 1322.851563 380.46875 1321.40625 391.132813 1319.921875 C 392.226563 1310.859375 393.398438 1303.398438 394.921875 1294.84375 C 385.976563 1296.289063 378.984375 1296.640625 370.039063 1298.125 C 367.226563 1273.867188 389.921875 1255.429688 382.382813 1227.539063 C 374.140625 1228.984375 365.898438 1230.429688 357.65625 1231.914063 Z M 357.65625 1231.914063 " transform="matrix(0.1,0,0,-0.1,0,221.5)"/>
    <path style="fill:none;stroke-width:15.212;stroke-linecap:round;stroke-linejoin:round;stroke:rgb(10.594177%,9.812927%,9.423828%);stroke-opacity:1;stroke-miterlimit:4;" d="M 1770.429688 1195.351563 C 1784.414063 1167.03125 1787.34375 1135.234375 1788.671875 1102.96875 " transform="matrix(0.1,0,0,-0.1,0,221.5)"/>
    <path style="fill:none;stroke-width:15.212;stroke-linecap:round;stroke-linejoin:round;stroke:rgb(10.594177%,9.812927%,9.423828%);stroke-opacity:1;stroke-miterlimit:4;" d="M 309.609375 1198.28125 C 295.625 1169.921875 292.695313 1138.164063 291.40625 1105.898438 " transform="matrix(0.1,0,0,-0.1,0,221.5)"/>
    <path style="fill: none; stroke-width: 15.212; stroke-linecap: round; stroke-linejoin: round; stroke-opacity: 1; stroke-miterlimit: 4; stroke: rgb(255, 255, 255);" d="M 1770.429688 1195.351563 C 1784.414063 1167.03125 1787.34375 1135.234375 1788.671875 1102.96875 " transform="matrix(0.1,0,0,-0.1,0,221.5)"/>
    <path style="fill: none; stroke-width: 15.212; stroke-linecap: round; stroke-linejoin: round; stroke-opacity: 1; stroke-miterlimit: 4; stroke: rgb(255, 255, 255);" d="M 309.609375 1198.28125 C 295.625 1169.921875 292.695313 1138.164063 291.40625 1105.898438 " transform="matrix(0.1,0,0,-0.1,0,221.5)"/>
    <path style="fill:none;stroke-width:15.212;stroke-linecap:round;stroke-linejoin:round;stroke:rgb(10.594177%,9.812927%,9.423828%);stroke-opacity:1;stroke-miterlimit:4;" d="M 1753.671875 1187.695313 C 1767.65625 1159.335938 1770.546875 1127.578125 1771.875 1095.3125 " transform="matrix(0.1,0,0,-0.1,0,221.5)"/>
    <path style="fill:none;stroke-width:15.212;stroke-linecap:round;stroke-linejoin:round;stroke:rgb(10.594177%,9.812927%,9.423828%);stroke-opacity:1;stroke-miterlimit:4;" d="M 326.40625 1190.585938 C 312.382813 1162.265625 309.492188 1130.46875 308.164063 1098.203125 " transform="matrix(0.1,0,0,-0.1,0,221.5)"/>
    <path style="fill: none; stroke-width: 15.212; stroke-linecap: round; stroke-linejoin: round; stroke-opacity: 1; stroke-miterlimit: 4; stroke: rgb(255, 255, 255);" d="M 1753.671875 1187.695313 C 1767.65625 1159.335938 1770.546875 1127.578125 1771.875 1095.3125 " transform="matrix(0.1,0,0,-0.1,0,221.5)"/>
    <path style="fill: none; stroke-width: 15.212; stroke-linecap: round; stroke-linejoin: round; stroke-opacity: 1; stroke-miterlimit: 4; stroke: rgb(255, 255, 255);" d="M 326.40625 1190.585938 C 312.382813 1162.265625 309.492188 1130.46875 308.164063 1098.203125 " transform="matrix(0.1,0,0,-0.1,0,221.5)"/>
    <path style="fill:none;stroke-width:15.212;stroke-linecap:round;stroke-linejoin:round;stroke:rgb(10.594177%,9.812927%,9.423828%);stroke-opacity:1;stroke-miterlimit:4;" d="M 1735.078125 1181.679688 C 1749.0625 1153.320313 1751.953125 1121.5625 1753.28125 1089.296875 " transform="matrix(0.1,0,0,-0.1,0,221.5)"/>
    <path style="fill:none;stroke-width:15.212;stroke-linecap:round;stroke-linejoin:round;stroke:rgb(10.594177%,9.812927%,9.423828%);stroke-opacity:1;stroke-miterlimit:4;" d="M 345 1184.570313 C 330.976563 1156.210938 328.085938 1124.453125 326.757813 1092.1875 " transform="matrix(0.1,0,0,-0.1,0,221.5)"/>
    <path style="fill: none; stroke-width: 15.212; stroke-linecap: round; stroke-linejoin: round; stroke-opacity: 1; stroke-miterlimit: 4; stroke: rgb(255, 255, 255);" d="M 1735.078125 1181.679688 C 1749.0625 1153.320313 1751.953125 1121.5625 1753.28125 1089.296875 " transform="matrix(0.1,0,0,-0.1,0,221.5)"/>
    <path style="fill: none; stroke-width: 15.212; stroke-linecap: round; stroke-linejoin: round; stroke-opacity: 1; stroke-miterlimit: 4; stroke: rgb(255, 255, 255);" d="M 345 1184.570313 C 330.976563 1156.210938 328.085938 1124.453125 326.757813 1092.1875 " transform="matrix(0.1,0,0,-0.1,0,221.5)"/>
    <path style="fill:none;stroke-width:15.212;stroke-linecap:round;stroke-linejoin:round;stroke:rgb(10.594177%,9.812927%,9.423828%);stroke-opacity:1;stroke-miterlimit:4;" d="M 1715.546875 1178.203125 C 1729.570313 1149.84375 1732.460938 1118.085938 1733.789063 1085.820313 " transform="matrix(0.1,0,0,-0.1,0,221.5)"/>
    <path style="fill:none;stroke-width:15.212;stroke-linecap:round;stroke-linejoin:round;stroke:rgb(10.594177%,9.812927%,9.423828%);stroke-opacity:1;stroke-miterlimit:4;" d="M 364.492188 1181.09375 C 350.46875 1152.773438 347.578125 1120.976563 346.25 1088.75 " transform="matrix(0.1,0,0,-0.1,0,221.5)"/>
    <path style="fill: none; stroke-width: 15.212; stroke-linecap: round; stroke-linejoin: round; stroke-opacity: 1; stroke-miterlimit: 4; stroke: rgb(255, 255, 255);" d="M 1715.546875 1178.203125 C 1729.570313 1149.84375 1732.460938 1118.085938 1733.789063 1085.820313 " transform="matrix(0.1,0,0,-0.1,0,221.5)"/>
    <path style="fill: none; stroke-width: 15.212; stroke-linecap: round; stroke-linejoin: round; stroke-opacity: 1; stroke-miterlimit: 4; stroke: rgb(255, 255, 255);" d="M 364.492188 1181.09375 C 350.46875 1152.773438 347.578125 1120.976563 346.25 1088.75 " transform="matrix(0.1,0,0,-0.1,0,221.5)"/>
    <path style="fill:none;stroke-width:15.212;stroke-linecap:round;stroke-linejoin:round;stroke:rgb(10.594177%,9.812927%,9.423828%);stroke-opacity:1;stroke-miterlimit:4;" d="M 1696.953125 1178.945313 C 1710.976563 1150.585938 1713.867188 1118.828125 1715.195313 1086.5625 " transform="matrix(0.1,0,0,-0.1,0,221.5)"/>
    <path style="fill:none;stroke-width:15.212;stroke-linecap:round;stroke-linejoin:round;stroke:rgb(10.594177%,9.812927%,9.423828%);stroke-opacity:1;stroke-miterlimit:4;" d="M 383.085938 1181.835938 C 369.101563 1153.476563 366.171875 1121.71875 364.84375 1089.453125 " transform="matrix(0.1,0,0,-0.1,0,221.5)"/>
    <path style="fill: none; stroke-width: 15.212; stroke-linecap: round; stroke-linejoin: round; stroke-opacity: 1; stroke-miterlimit: 4; stroke: rgb(255, 255, 255);" d="M 1696.953125 1178.945313 C 1710.976563 1150.585938 1713.867188 1118.828125 1715.195313 1086.5625 " transform="matrix(0.1,0,0,-0.1,0,221.5)"/>
    <path style="fill: none; stroke-width: 15.212; stroke-linecap: round; stroke-linejoin: round; stroke-opacity: 1; stroke-miterlimit: 4; stroke: rgb(255, 255, 255);" d="M 383.085938 1181.835938 C 369.101563 1153.476563 366.171875 1121.71875 364.84375 1089.453125 " transform="matrix(0.1,0,0,-0.1,0,221.5)"/>
    <path style="fill:none;stroke-width:15.212;stroke-linecap:round;stroke-linejoin:round;stroke:rgb(10.594177%,9.812927%,9.423828%);stroke-opacity:1;stroke-miterlimit:4;" d="M 1674.179688 1179.101563 C 1688.164063 1152.65625 1691.09375 1123.046875 1692.382813 1092.929688 " transform="matrix(0.1,0,0,-0.1,0,221.5)"/>
    <path style="fill:none;stroke-width:15.212;stroke-linecap:round;stroke-linejoin:round;stroke:rgb(10.594177%,9.812927%,9.423828%);stroke-opacity:1;stroke-miterlimit:4;" d="M 405.859375 1182.03125 C 391.875 1155.585938 388.984375 1125.9375 387.65625 1095.859375 " transform="matrix(0.1,0,0,-0.1,0,221.5)"/>
    <path style="fill: none; stroke-width: 15.212; stroke-linecap: round; stroke-linejoin: round; stroke-opacity: 1; stroke-miterlimit: 4; stroke: rgb(255, 255, 255);" d="M 1674.179688 1179.101563 C 1688.164063 1152.65625 1691.09375 1123.046875 1692.382813 1092.929688 " transform="matrix(0.1,0,0,-0.1,0,221.5)"/>
    <path style="fill: none; stroke-width: 15.212; stroke-linecap: round; stroke-linejoin: round; stroke-opacity: 1; stroke-miterlimit: 4; stroke: rgb(255, 255, 255);" d="M 405.859375 1182.03125 C 391.875 1155.585938 388.984375 1125.9375 387.65625 1095.859375 " transform="matrix(0.1,0,0,-0.1,0,221.5)"/>
    <path style="fill:none;stroke-width:15.212;stroke-linecap:round;stroke-linejoin:round;stroke:rgb(10.594177%,9.812927%,9.423828%);stroke-opacity:1;stroke-miterlimit:4;" d="M 1657.226563 1176.5625 C 1671.210938 1150.117188 1674.140625 1120.46875 1675.46875 1090.390625 " transform="matrix(0.1,0,0,-0.1,0,221.5)"/>
    <path style="fill:none;stroke-width:15.212;stroke-linecap:round;stroke-linejoin:round;stroke:rgb(10.594177%,9.812927%,9.423828%);stroke-opacity:1;stroke-miterlimit:4;" d="M 422.8125 1179.453125 C 408.828125 1153.007813 405.9375 1123.398438 404.609375 1093.28125 " transform="matrix(0.1,0,0,-0.1,0,221.5)"/>
    <path style="fill: none; stroke-width: 15.212; stroke-linecap: round; stroke-linejoin: round; stroke-opacity: 1; stroke-miterlimit: 4; stroke: rgb(255, 255, 255);" d="M 1657.226563 1176.5625 C 1671.210938 1150.117188 1674.140625 1120.46875 1675.46875 1090.390625 " transform="matrix(0.1,0,0,-0.1,0,221.5)"/>
    <path style="fill: none; stroke-width: 15.212; stroke-linecap: round; stroke-linejoin: round; stroke-opacity: 1; stroke-miterlimit: 4; stroke: rgb(255, 255, 255);" d="M 422.8125 1179.453125 C 408.828125 1153.007813 405.9375 1123.398438 404.609375 1093.28125 " transform="matrix(0.1,0,0,-0.1,0,221.5)"/>
    <path style="fill:none;stroke-width:15.212;stroke-linecap:round;stroke-linejoin:round;stroke:rgb(10.594177%,9.812927%,9.423828%);stroke-opacity:1;stroke-miterlimit:4;" d="M 1639.726563 1171.09375 C 1653.710938 1144.648438 1656.640625 1115 1657.96875 1084.921875 " transform="matrix(0.1,0,0,-0.1,0,221.5)"/>
    <path style="fill:none;stroke-width:15.212;stroke-linecap:round;stroke-linejoin:round;stroke:rgb(10.594177%,9.812927%,9.423828%);stroke-opacity:1;stroke-miterlimit:4;" d="M 440.3125 1173.984375 C 426.328125 1147.539063 423.398438 1117.929688 422.109375 1087.8125 " transform="matrix(0.1,0,0,-0.1,0,221.5)"/>
    <path style="fill: none; stroke-width: 15.212; stroke-linecap: round; stroke-linejoin: round; stroke-opacity: 1; stroke-miterlimit: 4; stroke: rgb(255, 255, 255);" d="M 1639.726563 1171.09375 C 1653.710938 1144.648438 1656.640625 1115 1657.96875 1084.921875 " transform="matrix(0.1,0,0,-0.1,0,221.5)"/>
    <path style="fill: none; stroke-width: 15.212; stroke-linecap: round; stroke-linejoin: round; stroke-opacity: 1; stroke-miterlimit: 4; stroke: rgb(255, 255, 255);" d="M 440.3125 1173.984375 C 426.328125 1147.539063 423.398438 1117.929688 422.109375 1087.8125 " transform="matrix(0.1,0,0,-0.1,0,221.5)"/>
    <path style="fill:none;stroke-width:15.212;stroke-linecap:round;stroke-linejoin:round;stroke:rgb(10.594177%,9.812927%,9.423828%);stroke-opacity:1;stroke-miterlimit:4;" d="M 1623.671875 1164.335938 C 1637.695313 1137.890625 1640.585938 1108.242188 1641.914063 1078.164063 " transform="matrix(0.1,0,0,-0.1,0,221.5)"/>
    <path style="fill:none;stroke-width:15.212;stroke-linecap:round;stroke-linejoin:round;stroke:rgb(10.594177%,9.812927%,9.423828%);stroke-opacity:1;stroke-miterlimit:4;" d="M 456.367188 1167.226563 C 442.382813 1140.78125 439.453125 1111.171875 438.125 1081.054688 " transform="matrix(0.1,0,0,-0.1,0,221.5)"/>
    <path style="fill: none; stroke-width: 15.212; stroke-linecap: round; stroke-linejoin: round; stroke-opacity: 1; stroke-miterlimit: 4; stroke: rgb(255, 255, 255);" d="M 1623.671875 1164.335938 C 1637.695313 1137.890625 1640.585938 1108.242188 1641.914063 1078.164063 " transform="matrix(0.1,0,0,-0.1,0,221.5)"/>
    <path style="fill: none; stroke-width: 15.212; stroke-linecap: round; stroke-linejoin: round; stroke-opacity: 1; stroke-miterlimit: 4; stroke: rgb(255, 255, 255);" d="M 456.367188 1167.226563 C 442.382813 1140.78125 439.453125 1111.171875 438.125 1081.054688 " transform="matrix(0.1,0,0,-0.1,0,221.5)"/>
    <path style="fill:none;stroke-width:15.212;stroke-linecap:round;stroke-linejoin:round;stroke:rgb(10.594177%,9.812927%,9.423828%);stroke-opacity:1;stroke-miterlimit:4;" d="M 1610 1162.304688 C 1624.023438 1135.859375 1624.921875 1101.132813 1623.476563 1071.210938 " transform="matrix(0.1,0,0,-0.1,0,221.5)"/>
    <path style="fill:none;stroke-width:15.212;stroke-linecap:round;stroke-linejoin:round;stroke:rgb(10.594177%,9.812927%,9.423828%);stroke-opacity:1;stroke-miterlimit:4;" d="M 470.039063 1165.234375 C 456.054688 1138.789063 455.15625 1104.023438 456.5625 1074.140625 " transform="matrix(0.1,0,0,-0.1,0,221.5)"/>
    <path style="fill: none; stroke-width: 15.212; stroke-linecap: round; stroke-linejoin: round; stroke-opacity: 1; stroke-miterlimit: 4; stroke: rgb(255, 255, 255);" d="M 1610 1162.304688 C 1624.023438 1135.859375 1624.921875 1101.132813 1623.476563 1071.210938 " transform="matrix(0.1,0,0,-0.1,0,221.5)"/>
    <path style="fill: none; stroke-width: 15.212; stroke-linecap: round; stroke-linejoin: round; stroke-opacity: 1; stroke-miterlimit: 4; stroke: rgb(255, 255, 255);" d="M 470.039063 1165.234375 C 456.054688 1138.789063 455.15625 1104.023438 456.5625 1074.140625 " transform="matrix(0.1,0,0,-0.1,0,221.5)"/>
    <path style="fill:none;stroke-width:15.212;stroke-linecap:round;stroke-linejoin:round;stroke:rgb(10.594177%,9.812927%,9.423828%);stroke-opacity:1;stroke-miterlimit:4;" d="M 1627.5 1192.070313 C 1598.867188 1182.695313 1600.390625 1154.179688 1622.03125 1163.945313 C 1640.742188 1172.421875 1662.265625 1183.007813 1702.96875 1178.945313 C 1731.328125 1176.09375 1753.125 1188.554688 1775.546875 1197.929688 C 1791.601563 1204.609375 1784.6875 1224.0625 1770.078125 1221.289063 " transform="matrix(0.1,0,0,-0.1,0,221.5)"/>
    <path style="fill:none;stroke-width:15.212;stroke-linecap:round;stroke-linejoin:round;stroke:rgb(10.594177%,9.812927%,9.423828%);stroke-opacity:1;stroke-miterlimit:4;" d="M 452.539063 1195 C 481.171875 1185.625 479.648438 1157.070313 458.007813 1166.875 C 439.296875 1175.3125 417.773438 1185.9375 377.070313 1181.835938 C 348.710938 1178.984375 326.914063 1191.484375 304.53125 1200.820313 C 288.4375 1207.539063 295.351563 1226.992188 310 1224.179688 " transform="matrix(0.1,0,0,-0.1,0,221.5)"/>
    <path style="fill: none; stroke-width: 15.212; stroke-linecap: round; stroke-linejoin: round; stroke-opacity: 1; stroke-miterlimit: 4; stroke: rgb(255, 255, 255);" d="M 1627.5 1192.070313 C 1598.867188 1182.695313 1600.390625 1154.179688 1622.03125 1163.945313 C 1640.742188 1172.421875 1662.265625 1183.007813 1702.96875 1178.945313 C 1731.328125 1176.09375 1753.125 1188.554688 1775.546875 1197.929688 C 1791.601563 1204.609375 1784.6875 1224.0625 1770.078125 1221.289063 " transform="matrix(0.1,0,0,-0.1,0,221.5)"/>
    <path style="fill: none; stroke-width: 15.212; stroke-linecap: round; stroke-linejoin: round; stroke-opacity: 1; stroke-miterlimit: 4; stroke: rgb(255, 255, 255);" d="M 452.539063 1195 C 481.171875 1185.625 479.648438 1157.070313 458.007813 1166.875 C 439.296875 1175.3125 417.773438 1185.9375 377.070313 1181.835938 C 348.710938 1178.984375 326.914063 1191.484375 304.53125 1200.820313 C 288.4375 1207.539063 295.351563 1226.992188 310 1224.179688 " transform="matrix(0.1,0,0,-0.1,0,221.5)"/>
    <path style="fill: none; stroke-width: 15.212; stroke-linecap: round; stroke-linejoin: round; stroke-opacity: 1; stroke-miterlimit: 4; stroke: rgb(255, 255, 255);" d="M 933.398438 1663.710938 C 950.429688 1605.78125 953.710938 1558.515625 940.625 1512.304688 " transform="matrix(0.1,0,0,-0.1,0,221.5)"/>
    <path style="fill: none; stroke-width: 15.212; stroke-linecap: round; stroke-linejoin: round; stroke-opacity: 1; stroke-miterlimit: 4; stroke: rgb(255, 255, 255);" d="M 1144.257813 1660.9375 C 1127.226563 1603.046875 1124.375 1549.765625 1137.460938 1503.515625 " transform="matrix(0.1,0,0,-0.1,0,221.5)"/>
    <path style="fill: none; stroke-width: 15.212; stroke-linecap: round; stroke-linejoin: round; stroke-opacity: 1; stroke-miterlimit: 4; stroke: rgb(255, 255, 255);" d="M 980.15625 1663.398438 C 1027.070313 1590.898438 1018.984375 1497.890625 1005.898438 1451.679688 " transform="matrix(0.1,0,0,-0.1,0,221.5)"/>
    <path style="fill: none; stroke-width: 15.212; stroke-linecap: round; stroke-linejoin: round; stroke-opacity: 1; stroke-miterlimit: 4; stroke: rgb(255, 255, 255);" d="M 1092.695313 1662.96875 C 1045.78125 1590.46875 1052.539063 1488.789063 1072.1875 1442.929688 " transform="matrix(0.1,0,0,-0.1,0,221.5)"/>
    <path style="fill: none; stroke-width: 15.212; stroke-linecap: round; stroke-linejoin: round; stroke-opacity: 1; stroke-miterlimit: 4; stroke: rgb(255, 255, 255);" d="M 1173.789063 1420.273438 C 1166.953125 1429.84375 1163.085938 1439.570313 1159.921875 1450.585938 " transform="matrix(0.1,0,0,-0.1,0,221.5)"/>
    <path style="fill: none; stroke-width: 15.212; stroke-linecap: round; stroke-linejoin: round; stroke-opacity: 1; stroke-miterlimit: 4; stroke: rgb(255, 255, 255);" d="M 901.523438 1420.273438 C 908.398438 1429.84375 916.992188 1445.78125 920.117188 1456.796875 " transform="matrix(0.1,0,0,-0.1,0,221.5)"/>
    <path style="fill: none; stroke-width: 15.212; stroke-linecap: round; stroke-linejoin: round; stroke-opacity: 1; stroke-miterlimit: 4; stroke: rgb(255, 255, 255);" d="M 796.601563 1664.921875 C 774.882813 1694.882813 777.382813 1773.359375 809.21875 1816.015625 C 794.882813 1862.421875 823.476563 1896.640625 845.820313 1913.554688 C 850.078125 1965.664063 918.867188 2014.84375 987.65625 2053.398438 C 1020.234375 2053.046875 1046.054688 2052.851563 1078.632813 2052.5 C 1145.78125 2026.09375 1213.710938 1968.90625 1218.554688 1911.992188 C 1257.734375 1891.5625 1277.1875 1854.179688 1271.328125 1815.390625 C 1313.320313 1764.6875 1309.023438 1714.023438 1285.859375 1663.320313 C 1122.773438 1663.867188 959.6875 1664.375 796.601563 1664.921875 Z M 796.601563 1664.921875 " transform="matrix(0.1,0,0,-0.1,0,221.5)"/>
    <path style="fill: none; stroke-width: 15.212; stroke-linecap: round; stroke-linejoin: round; stroke-opacity: 1; stroke-miterlimit: 4; stroke: rgb(255, 255, 255);" d="M 845.820313 1913.554688 L 1219.179688 1912.460938 " transform="matrix(0.1,0,0,-0.1,0,221.5)"/>
    <path style="fill: none; stroke-width: 15.271; stroke-linecap: round; stroke-linejoin: round; stroke-opacity: 1; stroke-miterlimit: 4; stroke: rgb(255, 255, 255);" d="M 809.023438 1815.703125 L 1271.679688 1814.609375 " transform="matrix(0.1,0,0,-0.1,0,221.5)"/>
    <path style="fill: none; stroke-width: 15.212; stroke-linecap: round; stroke-linejoin: round; stroke-opacity: 1; stroke-miterlimit: 4; stroke: rgb(255, 255, 255);" d="M 821.757813 1888.75 C 831.875 1838.4375 849.375 1805.625 861.523438 1847.109375 C 883.632813 1922.734375 892.265625 1946.171875 906.367188 1847.109375 C 909.492188 1825.195313 930.195313 1819.726563 935.507813 1844.570313 C 956.132813 1940.46875 961.640625 1931.132813 984.726563 1842.734375 C 988.789063 1827.265625 1007.03125 1819.257813 1013.90625 1841.640625 C 1038.515625 1921.40625 1039.453125 1946.054688 1061.289063 1843.085938 C 1065.898438 1821.445313 1087.382813 1822.382813 1092.65625 1843.828125 C 1116.054688 1938.789063 1122.304688 1932.148438 1142.226563 1841.289063 C 1145.351563 1827.148438 1164.453125 1819.21875 1169.960938 1841.640625 C 1192.65625 1934.375 1202.109375 1935.390625 1219.179688 1841.640625 C 1225.039063 1809.335938 1246.367188 1837.382813 1251.25 1884.726563 " transform="matrix(0.1,0,0,-0.1,0,221.5)"/>
    <path style="fill: none; stroke-width: 15.212; stroke-linecap: round; stroke-linejoin: round; stroke-opacity: 1; stroke-miterlimit: 4; stroke: rgb(255, 255, 255);" d="M 796.601563 1794.179688 C 803.164063 1770.546875 807.148438 1746.054688 816.289063 1723.320313 C 823.671875 1705.078125 840.195313 1704.570313 844.375 1723.320313 C 871.484375 1845.15625 884.179688 1845.3125 911.09375 1723.710938 C 915.3125 1704.6875 943.4375 1699.804688 949.023438 1722.617188 C 980.3125 1850.351563 987.421875 1836.132813 1021.210938 1723.320313 C 1029.453125 1695.78125 1064.101563 1694.375 1072.96875 1723.320313 C 1108.242188 1838.320313 1110.273438 1846.796875 1143.710938 1722.617188 C 1149.726563 1700.195313 1180.15625 1700.898438 1185.273438 1723.320313 C 1215.898438 1857.734375 1226.679688 1829.414063 1246.132813 1724.0625 C 1249.453125 1706.210938 1259.21875 1704.84375 1266.210938 1723.320313 C 1275.039063 1746.796875 1278.359375 1772.03125 1284.453125 1796.367188 " transform="matrix(0.1,0,0,-0.1,0,221.5)"/>
    <path style="fill: none; stroke-width: 15.212; stroke-linecap: round; stroke-linejoin: round; stroke-opacity: 1; stroke-miterlimit: 4; stroke: rgb(255, 255, 255);" d="M 876.445313 1972.734375 C 886.171875 1929.765625 901.132813 1894.335938 907.8125 1925.273438 C 924.335938 2001.601563 933.476563 1993.515625 955.9375 1927.460938 C 961.953125 1909.84375 973.671875 1909.960938 977.8125 1927.070313 C 995.351563 1999.257813 1004.101563 1998.789063 1023.75 1927.460938 C 1029.414063 1906.835938 1045 1909.921875 1049.257813 1927.8125 C 1064.335938 1990.585938 1071.875 2008.359375 1092.65625 1927.460938 C 1097.34375 1909.21875 1112.96875 1912.5 1117.070313 1927.460938 C 1134.804688 1991.914063 1139.257813 1992.539063 1153.164063 1928.164063 C 1157.03125 1910.273438 1172.734375 1904.765625 1178.320313 1927.460938 C 1182.578125 1944.648438 1180.820313 1960.742188 1191.09375 1971.640625 " transform="matrix(0.1,0,0,-0.1,0,221.5)"/>
    <path style="stroke-width: 15.212; stroke-linecap: round; stroke-linejoin: round; stroke-opacity: 1; stroke-miterlimit: 4; fill: none; stroke: rgb(255, 255, 255);" d="M 1016.835938 2169.140625 L 1017.1875 2208.046875 L 1048.203125 2208.046875 L 1047.8125 2168.789063 L 1094.492188 2169.140625 L 1094.492188 2144.6875 L 1048.007813 2144.53125 L 1048.203125 2082.8125 L 1016.09375 2082.617188 L 1015.742188 2144.6875 L 971.992188 2145.429688 L 971.992188 2168.789063 Z M 1016.835938 2169.140625 " transform="matrix(0.1,0,0,-0.1,0,221.5)"/>
    <path style="fill: none; stroke-width: 15.212; stroke-linecap: round; stroke-linejoin: round; stroke-opacity: 1; stroke-miterlimit: 4; stroke: rgb(255, 255, 255);" d="M 988.007813 2053.789063 C 992.695313 2066.015625 1000.703125 2076.40625 1016.09375 2082.8125 C 1026.796875 2082.734375 1037.5 2082.695313 1048.164063 2082.617188 C 1060.195313 2077.1875 1071.132813 2067.890625 1078.4375 2053.046875 " transform="matrix(0.1,0,0,-0.1,0,221.5)"/>
  </g>
</svg>